<svg xmlns="http://www.w3.org/2000/svg" viewBox="0 0 312.06 312.06">
  <defs>
    <style>
      .a {
        fill: #414042;
      }

      .b {
        fill: #00aeef;
      }
    </style>
  </defs>
  <title>logo</title>
  <path class="a" d="M384.84,436.47C459.36,393.45,485,297.81,442,223.29S303.3,123.14,228.78,166.17,128.63,304.83,171.66,379.35,310.31,479.5,384.84,436.47ZM374.52,418.6c-64.67,37.33-147.65,15.1-185-49.57s-15.1-147.65,49.57-185,147.65-15.1,185,49.56S439.18,381.26,374.52,418.6Z" transform="translate(-150.78 -145.29)"/>
  <path class="b" d="M270.72,271a17.93,17.93,0,0,0,24.5-6.57l11.55-20,11.55,20a17.93,17.93,0,1,0,31.06-17.93l-42.61-73.8-42.61,73.8A17.94,17.94,0,0,0,270.72,271Z" transform="translate(-150.78 -145.29)"/>
  <path class="a" d="M315.06,347.81A17.92,17.92,0,0,1,333,329.88h23.09l-11.55-20A17.93,17.93,0,1,1,375.6,292l42.61,73.8H333A17.94,17.94,0,0,1,315.06,347.81Z" transform="translate(-150.78 -145.29)"/>
  <path class="a" d="M226.6,365.37H279a17.93,17.93,0,1,0,0-35.86H257.66L268.33,311a17.93,17.93,0,1,0-31-17.94l-41.74,72.29Z" transform="translate(-150.78 -145.29)"/>
</svg>
